# xmcd
#
# Track frame offsets:
#	150
#	12209
#	26456
#	41864
#	60715
#	77945
#	90324
#	103561
#	115530
#	129881
#	145669
#	162035
#	173994
#	190019
#
# Disc length: 2710 seconds
#
# Revision: 0
# Processed by: cddbd v1.5.2PL0 Copyright (c) Steve Scherf et al.
# Submitted via: EasyCDDAExtractor 10.0.3.1
#
DISCID=a30a940e
DTITLE=Roberto Gomez - Cuerdas Antillanas
DYEAR=2007
DGENRE=Instrumental
TTITLE0=Cumbanchero
TTITLE1=Dos Gardenias
TTITLE2=Frenesi
TTITLE3=La Comparsa
TTITLE4=Lagrimas Negras
TTITLE5=Contigo En La Distancia
TTITLE6=Convergencia
TTITLE7=Perfume De Gardenia
TTITLE8=Son De La Loma
TTITLE9=Vereda Tropical
TTITLE10=Acuarela De Brasil
TTITLE11=Patricia
TTITLE12=Cachita
TTITLE13=Moliendo Cafe
EXTD=
EXTT0=
EXTT1=
EXTT2=
EXTT3=
EXTT4=
EXTT5=
EXTT6=
EXTT7=
EXTT8=
EXTT9=
EXTT10=
EXTT11=
EXTT12=
EXTT13=
PLAYORDER=
